<svg height="512pt" viewBox="0 -32 512 511" width="512pt" xmlns="http://www.w3.org/2000/svg"><path d="m456.835938.5h-401.667969c-30.421875 0-55.167969 24.746094-55.167969 55.164062v337.402344c0 30.417969 24.746094 55.167969 55.167969 55.167969h401.667969c30.417968 0 55.164062-24.75 55.164062-55.167969v-337.402344c0-30.417968-24.746094-55.164062-55.164062-55.164062zm0 0" fill="#ffd400"/><path d="m456.835938.5h-200.835938v447.734375h200.835938c30.417968 0 55.164062-24.75 55.164062-55.167969v-337.402344c0-30.417968-24.746094-55.164062-55.164062-55.164062zm0 0" fill="#ff9f04"/><path d="m216.992188 238.703125c10.753906 10.757813 24.878906 16.132813 39.007812 16.132813s28.253906-5.375 39.007812-16.132813l200.800782-200.796875 9.152344-9.15625c-4.980469-8.871094-12.339844-16.230469-21.210938-21.214844l-9.15625 9.15625-200.796875 200.800782c-4.90625 4.90625-11.351563 7.359374-17.796875 7.359374s-12.890625-2.453124-17.796875-7.359374l-200.796875-200.800782-9.15625-9.15625c-8.871094 4.984375-16.230469 12.34375-21.210938 21.214844l9.152344 9.15625zm0 0" fill="#ff9f00"/><path d="m483.75 7.535156-9.15625 9.15625-200.796875 200.800782c-4.90625 4.90625-11.351563 7.359374-17.796875 7.359374v29.984376c14.128906 0 28.253906-5.378907 39.007812-16.132813l200.800782-200.796875 9.152344-9.15625c-4.980469-8.871094-12.339844-16.230469-21.210938-21.214844zm0 0" fill="#ff641a"/></svg>