<svg height="512pt" viewBox="-106 0 512 512" width="512pt" xmlns="http://www.w3.org/2000/svg"><path d="m284.925781 126.402344c8.285157 0 15-6.71875 15-15v-96.402344c0-8.285156-6.714843-15-15-15h-112.472656c-52.566406 0-95.332031 42.765625-95.332031 95.332031v97.46875h-62.121094c-8.285156 0-15 6.714844-15 15v96.398438c0 8.285156 6.714844 15 15 15h62.121094v177.800781c0 8.285156 6.714844 15 15 15h96.402344c8.285156 0 15-6.714844 15-15v-177.800781h62.121093c7.152344 0 13.308594-5.046875 14.710938-12.058594l19.277343-96.398437c.882813-4.40625-.257812-8.976563-3.105468-12.453126-2.851563-3.472656-7.109375-5.488281-11.601563-5.488281h-81.402343v-66.398437zm0 0" fill="#0065a3"/><path d="m284.925781 126.402344c8.285157 0 15-6.71875 15-15v-96.402344c0-8.285156-6.714843-15-15-15h-112.472656c-11.273437 0-22.09375 1.972656-32.140625 5.582031v506.417969h48.210938c8.285156 0 15-6.714844 15-15v-177.800781h62.121093c7.152344 0 13.308594-5.046875 14.710938-12.058594l19.277343-96.398437c.882813-4.40625-.257812-8.976563-3.105468-12.453126-2.851563-3.472656-7.109375-5.488281-11.601563-5.488281h-81.402343v-66.398437zm0 0" fill="#005183"/></svg>