<svg height="512pt" viewBox="0 0 512 512" width="512pt" xmlns="http://www.w3.org/2000/svg"><path d="m460.410156 51.589844c-33.265625-33.269532-77.332031-51.589844-124.074218-51.589844h-160.671876c-46.742187 0-90.808593 18.320312-124.074218 51.589844-33.269532 33.265625-51.589844 77.332031-51.589844 124.074218v160.667969c0 46.746094 18.320312 90.8125 51.589844 124.078125 33.265625 33.269532 77.332031 51.589844 124.074218 51.589844h160.671876c46.742187 0 90.808593-18.320312 124.074218-51.589844 33.269532-33.265625 51.589844-77.332031 51.589844-124.078125v-160.667969c0-46.742187-18.320312-90.808593-51.589844-124.074218zm0 0" fill="#ff3f5c"/><path d="m460.410156 51.589844c-33.265625-33.269532-77.332031-51.589844-124.074218-51.589844h-80.335938v512h80.335938c46.742187 0 90.808593-18.320312 124.074218-51.589844 33.269532-33.265625 51.589844-77.332031 51.589844-124.078125v-160.667969c0-46.742187-18.320312-90.808593-51.589844-124.074218zm0 0" fill="#f30051"/><path d="m256 391.5c-74.714844 0-135.5-60.785156-135.5-135.5s60.785156-135.5 135.5-135.5 135.5 60.785156 135.5 135.5-60.785156 135.5-135.5 135.5zm0-241c-58.171875 0-105.5 47.328125-105.5 105.5s47.328125 105.5 105.5 105.5 105.5-47.328125 105.5-105.5-47.328125-105.5-105.5-105.5zm0 0" fill="#e7f0ef"/><g fill="#c5e1e6"><path d="m395.503906 131.496094c-3.949218 0-7.808594-1.601563-10.609375-4.398438-2.789062-2.789062-4.390625-6.660156-4.390625-10.601562 0-3.949219 1.601563-7.808594 4.390625-10.609375 2.800781-2.789063 6.660157-4.390625 10.609375-4.390625 3.949219 0 7.8125 1.601562 10.609375 4.390625 2.792969 2.800781 4.390625 6.660156 4.390625 10.609375 0 3.949218-1.597656 7.8125-4.390625 10.601562-2.796875 2.796875-6.660156 4.398438-10.609375 4.398438zm0 0"/><path d="m256 120.5v30c58.171875 0 105.5 47.328125 105.5 105.5s-47.328125 105.5-105.5 105.5v30c74.714844 0 135.5-60.785156 135.5-135.5s-60.785156-135.5-135.5-135.5zm0 0"/></g></svg>