<svg height="512pt" viewBox="-8 0 511 512" width="512pt" xmlns="http://www.w3.org/2000/svg"><g fill="#0065a3"><path d="m111.902344 160.664062h-96.402344c-8.28125 0-15 6.71875-15 15v321.335938c0 8.285156 6.71875 15 15 15h96.402344c8.28125 0 15-6.714844 15-15v-321.335938c0-8.28125-6.71875-15-15-15zm0 0"/><path d="m63.703125 0c-34.851563 0-63.203125 28.351562-63.203125 63.195312 0 34.851563 28.351562 63.199219 63.203125 63.199219 34.847656 0 63.195313-28.351562 63.195313-63.199219.003906-34.84375-28.347657-63.195312-63.195313-63.195312zm0 0"/><path d="m352.910156 158.542969c-22.800781 0-45.273437 5.496093-65.398437 15.777343-.683594-7.652343-7.109375-13.65625-14.941407-13.65625h-96.40625c-8.28125 0-15 6.71875-15 15v321.335938c0 8.285156 6.71875 15 15 15h96.40625c8.285157 0 15-6.714844 15-15v-176.734375c0-22.734375 18.5-41.230469 41.234376-41.230469 22.734374 0 41.226562 18.496094 41.226562 41.230469v176.734375c0 8.285156 6.71875 15 15 15h96.402344c8.285156 0 15-6.714844 15-15v-194.933594c0-79.140625-64.382813-143.523437-143.523438-143.523437zm0 0"/></g><path d="m352.910156 158.542969c-22.800781 0-45.273437 5.496093-65.398437 15.777343-.683594-7.652343-7.109375-13.65625-14.941407-13.65625h-48.210937v351.335938h48.210937c8.285157 0 15-6.714844 15-15v-176.734375c0-22.734375 18.5-41.230469 41.234376-41.230469 22.734374 0 41.226562 18.496094 41.226562 41.230469v176.734375c0 8.285156 6.71875 15 15 15h96.402344c8.285156 0 15-6.714844 15-15v-194.933594c0-79.140625-64.382813-143.523437-143.523438-143.523437zm0 0" fill="#005183"/></svg>